<svg width="15" height="15" viewBox="0 0 15 15" fill="none" xmlns="http://www.w3.org/2000/svg">
<path d="M15 3.93001C15.0006 3.8313 14.9816 3.73345 14.9443 3.64208C14.907 3.5507 14.852 3.46759 14.7825 3.39751L11.6025 0.217512C11.5324 0.148001 11.4493 0.0930074 11.3579 0.055684C11.2665 0.0183606 11.1687 -0.000558133 11.07 1.25357e-05C10.9713 -0.000558133 10.8734 0.0183606 10.7821 0.055684C10.6907 0.0930074 10.6076 0.148001 10.5375 0.217512L8.415 2.34001L0.217512 10.5375C0.148001 10.6076 0.0930074 10.6907 0.055684 10.7821C0.0183606 10.8734 -0.000558133 10.9713 1.25357e-05 11.07V14.25C1.25357e-05 14.4489 0.07903 14.6397 0.219682 14.7803C0.360334 14.921 0.551099 15 0.750011 15H3.93001C4.03495 15.0057 4.13993 14.9893 4.23812 14.9518C4.33631 14.9143 4.42554 14.8567 4.5 14.7825L12.6525 6.585L14.7825 4.5C14.8509 4.42732 14.9067 4.34365 14.9475 4.25251C14.9547 4.19272 14.9547 4.13229 14.9475 4.07251C14.951 4.03759 14.951 4.00242 14.9475 3.96751L15 3.93001ZM3.62251 13.5H1.50001V11.3775L8.9475 3.93001L11.07 6.0525L3.62251 13.5ZM12.1275 4.995L10.005 2.87251L11.07 1.81501L13.185 3.93001L12.1275 4.995Z" fill="#D3D3D3"/>
</svg>
