<svg width="15" height="15" viewBox="0 0 15 15" fill="none" xmlns="http://www.w3.org/2000/svg">
<path d="M14.7583 5.24166L9.75832 0.241666C9.68153 0.166707 9.59099 0.107286 9.49166 0.0666665C9.38834 0.0246808 9.27817 0.00208173 9.16666 0H2.5C1.83696 0 1.20107 0.263392 0.732232 0.732232C0.263392 1.20107 0 1.83696 0 2.5V12.5C0 13.163 0.263392 13.7989 0.732232 14.2678C1.20107 14.7366 1.83696 15 2.5 15H12.5C13.163 15 13.7989 14.7366 14.2678 14.2678C14.7366 13.7989 15 13.163 15 12.5V5.83333C15.0006 5.72366 14.9796 5.61494 14.9381 5.51341C14.8967 5.41187 14.8356 5.31953 14.7583 5.24166ZM5 1.66667H8.33333V3.33333H5V1.66667ZM9.99999 13.3333H5V10.8333C5 10.6123 5.08779 10.4003 5.24407 10.2441C5.40035 10.0878 5.61231 9.99999 5.83333 9.99999H9.16666C9.38767 9.99999 9.59963 10.0878 9.75591 10.2441C9.91219 10.4003 9.99999 10.6123 9.99999 10.8333V13.3333ZM13.3333 12.5C13.3333 12.721 13.2455 12.933 13.0892 13.0892C12.933 13.2455 12.721 13.3333 12.5 13.3333H11.6667V10.8333C11.6667 10.1703 11.4033 9.5344 10.9344 9.06556C10.4656 8.59672 9.8297 8.33333 9.16666 8.33333H5.83333C5.17029 8.33333 4.5344 8.59672 4.06556 9.06556C3.59672 9.5344 3.33333 10.1703 3.33333 10.8333V13.3333H2.5C2.27898 13.3333 2.06702 13.2455 1.91074 13.0892C1.75446 12.933 1.66667 12.721 1.66667 12.5V2.5C1.66667 2.27898 1.75446 2.06702 1.91074 1.91074C2.06702 1.75446 2.27898 1.66667 2.5 1.66667H3.33333V4.16666C3.33333 4.38768 3.42113 4.59964 3.57741 4.75592C3.73369 4.9122 3.94565 5 4.16666 5H9.16666C9.38767 5 9.59963 4.9122 9.75591 4.75592C9.91219 4.59964 9.99999 4.38768 9.99999 4.16666V2.84166L13.3333 6.17499V12.5Z" fill="#D3D3D3"/>
</svg>
